<mxfile host="Electron" modified="2023-12-26T21:16:12.728Z" agent="Mozilla/5.0 (Windows NT 10.0; Win64; x64) AppleWebKit/537.36 (KHTML, like Gecko) draw.io/21.6.1 Chrome/112.0.5615.204 Electron/24.6.1 Safari/537.36" etag="C9xnDCEHlfBbzaxjlP7x" version="21.6.1" type="device">
  <diagram id="vVcUvRlz3QU9iEKB6M0F" name="PÃ¡gina-1">
    <mxGraphModel dx="2245" dy="1997" grid="1" gridSize="10" guides="1" tooltips="1" connect="1" arrows="1" fold="1" page="1" pageScale="1" pageWidth="827" pageHeight="1169" math="0" shadow="0">
      <root>
        <mxCell id="0" />
        <mxCell id="1" parent="0" />
        <mxCell id="xlxA4BQTWX7K5rV1ptmN-3" style="edgeStyle=orthogonalEdgeStyle;rounded=0;orthogonalLoop=1;jettySize=auto;html=1;" edge="1" parent="1" target="xlxA4BQTWX7K5rV1ptmN-2">
          <mxGeometry relative="1" as="geometry">
            <mxPoint x="110" y="90" as="sourcePoint" />
            <Array as="points">
              <mxPoint x="110" y="90" />
            </Array>
          </mxGeometry>
        </mxCell>
        <mxCell id="xlxA4BQTWX7K5rV1ptmN-8" style="edgeStyle=orthogonalEdgeStyle;rounded=0;orthogonalLoop=1;jettySize=auto;html=1;entryX=1;entryY=0.5;entryDx=0;entryDy=0;" edge="1" parent="1" source="WoB5SXGpKyq8SvAWBpAk-4" target="xlxA4BQTWX7K5rV1ptmN-7">
          <mxGeometry relative="1" as="geometry">
            <Array as="points">
              <mxPoint x="40" y="90" />
              <mxPoint x="40" y="90" />
            </Array>
          </mxGeometry>
        </mxCell>
        <mxCell id="WoB5SXGpKyq8SvAWBpAk-4" value="User" style="shape=umlActor;verticalLabelPosition=bottom;verticalAlign=top;html=1;" parent="1" vertex="1">
          <mxGeometry x="50" y="50" width="60" height="110" as="geometry" />
        </mxCell>
        <mxCell id="ufb44-00ZFJBunW_4dnz-1" value="Signin" style="ellipse;whiteSpace=wrap;html=1;" parent="1" vertex="1">
          <mxGeometry x="-230" y="290" width="130" height="60" as="geometry" />
        </mxCell>
        <mxCell id="ufb44-00ZFJBunW_4dnz-2" value="" style="endArrow=none;endFill=0;endSize=12;html=1;rounded=0;entryX=0.5;entryY=0;entryDx=0;entryDy=0;" parent="1" target="ufb44-00ZFJBunW_4dnz-1" edge="1">
          <mxGeometry width="160" relative="1" as="geometry">
            <mxPoint x="10" y="160" as="sourcePoint" />
            <mxPoint x="-135.01" y="327" as="targetPoint" />
          </mxGeometry>
        </mxCell>
        <mxCell id="ufb44-00ZFJBunW_4dnz-4" value="Register" style="ellipse;whiteSpace=wrap;html=1;" parent="1" vertex="1">
          <mxGeometry x="330" y="270" width="130" height="60" as="geometry" />
        </mxCell>
        <mxCell id="ufb44-00ZFJBunW_4dnz-5" value="" style="endArrow=none;endFill=0;endSize=12;html=1;rounded=0;" parent="1" target="ufb44-00ZFJBunW_4dnz-4" edge="1">
          <mxGeometry width="160" relative="1" as="geometry">
            <mxPoint x="140" y="160" as="sourcePoint" />
            <mxPoint x="325" y="250" as="targetPoint" />
          </mxGeometry>
        </mxCell>
        <mxCell id="xlxA4BQTWX7K5rV1ptmN-4" style="edgeStyle=orthogonalEdgeStyle;rounded=0;orthogonalLoop=1;jettySize=auto;html=1;" edge="1" parent="1" source="dVrME0aXgN6rBPOOE6ek-1" target="xlxA4BQTWX7K5rV1ptmN-1">
          <mxGeometry relative="1" as="geometry" />
        </mxCell>
        <mxCell id="dVrME0aXgN6rBPOOE6ek-1" value="Freelancer" style="shape=umlActor;verticalLabelPosition=bottom;verticalAlign=top;html=1;" parent="1" vertex="1">
          <mxGeometry x="60" y="475" width="60" height="110" as="geometry" />
        </mxCell>
        <mxCell id="dVrME0aXgN6rBPOOE6ek-3" value="" style="endArrow=none;html=1;rounded=0;entryX=0.615;entryY=1;entryDx=0;entryDy=0;entryPerimeter=0;" parent="1" target="ufb44-00ZFJBunW_4dnz-1" edge="1">
          <mxGeometry width="50" height="50" relative="1" as="geometry">
            <mxPoint x="30" y="520" as="sourcePoint" />
            <mxPoint x="-80" y="400" as="targetPoint" />
          </mxGeometry>
        </mxCell>
        <mxCell id="dVrME0aXgN6rBPOOE6ek-4" value="" style="endArrow=none;html=1;rounded=0;entryX=0.5;entryY=1;entryDx=0;entryDy=0;" parent="1" target="ufb44-00ZFJBunW_4dnz-4" edge="1">
          <mxGeometry width="50" height="50" relative="1" as="geometry">
            <mxPoint x="130" y="520" as="sourcePoint" />
            <mxPoint x="-80" y="400" as="targetPoint" />
            <Array as="points" />
          </mxGeometry>
        </mxCell>
        <mxCell id="dVrME0aXgN6rBPOOE6ek-5" value="CreateConversation" style="ellipse;whiteSpace=wrap;html=1;" parent="1" vertex="1">
          <mxGeometry x="20" y="290" width="130" height="60" as="geometry" />
        </mxCell>
        <mxCell id="dVrME0aXgN6rBPOOE6ek-6" value="" style="endArrow=none;html=1;rounded=0;" parent="1" edge="1">
          <mxGeometry width="50" height="50" relative="1" as="geometry">
            <mxPoint x="90" y="440" as="sourcePoint" />
            <mxPoint x="90" y="350" as="targetPoint" />
          </mxGeometry>
        </mxCell>
        <mxCell id="dVrME0aXgN6rBPOOE6ek-7" value="" style="endArrow=none;html=1;rounded=0;" parent="1" edge="1">
          <mxGeometry width="50" height="50" relative="1" as="geometry">
            <mxPoint x="80" y="290" as="sourcePoint" />
            <mxPoint x="80" y="200" as="targetPoint" />
          </mxGeometry>
        </mxCell>
        <mxCell id="xlxA4BQTWX7K5rV1ptmN-1" value="Update Profile" style="ellipse;whiteSpace=wrap;html=1;" vertex="1" parent="1">
          <mxGeometry x="310" y="540" width="120" height="80" as="geometry" />
        </mxCell>
        <mxCell id="xlxA4BQTWX7K5rV1ptmN-2" value="Update Profile" style="ellipse;whiteSpace=wrap;html=1;" vertex="1" parent="1">
          <mxGeometry x="290" y="50" width="120" height="80" as="geometry" />
        </mxCell>
        <mxCell id="xlxA4BQTWX7K5rV1ptmN-7" value="List Users" style="ellipse;whiteSpace=wrap;html=1;" vertex="1" parent="1">
          <mxGeometry x="-225" y="50" width="120" height="80" as="geometry" />
        </mxCell>
        <mxCell id="xlxA4BQTWX7K5rV1ptmN-10" style="edgeStyle=orthogonalEdgeStyle;rounded=0;orthogonalLoop=1;jettySize=auto;html=1;" edge="1" parent="1" source="xlxA4BQTWX7K5rV1ptmN-9" target="WoB5SXGpKyq8SvAWBpAk-4">
          <mxGeometry relative="1" as="geometry" />
        </mxCell>
        <mxCell id="xlxA4BQTWX7K5rV1ptmN-9" value="Delete User" style="ellipse;whiteSpace=wrap;html=1;" vertex="1" parent="1">
          <mxGeometry x="20" y="-120" width="120" height="80" as="geometry" />
        </mxCell>
      </root>
    </mxGraphModel>
  </diagram>
</mxfile>
